<?xml version="1.0" encoding="utf-8"?>
<!-- Generator: Adobe Illustrator 27.7.0, SVG Export Plug-In . SVG Version: 6.00 Build 0)  -->
<svg version="1.1" id="Layer_1" xmlns="http://www.w3.org/2000/svg" xmlns:xlink="http://www.w3.org/1999/xlink" x="0px" y="0px"
	 viewBox="0 0 1099.79 1599.95" style="enable-background:new 0 0 1099.79 1599.95;" xml:space="preserve">
<g>
	<g>
		<path 			
			fillRule="evenodd"
            clipRule="evenodd" 
			fill="rgba(255, 255, 255, 0.92)"  
			d="M381.86,950.1c-2.67,0-4.66,0-6.66,0c-106.83,0-213.66,0-320.49,0c-3.65,0-7.36,0.43-10.95-0.04
			c-3.98-0.52-8.07-1.34-11.72-2.93c-11.93-5.21-21.38-13.59-27.38-25.1c-2.61-5.01-4.48-10.63-4.59-16.68
			c-0.14-7.32-0.34-14.64,2.23-21.54c2.67-7.18,6.84-13.52,12.18-19.14c16.18-17.04,32.24-34.2,48.34-51.31
			C312.4,548.18,561.97,283.02,811.51,17.82c5.43-5.78,11.41-10.92,18.65-13.92c8.4-3.48,17.19-5.07,26.52-2.92
			c5.2,1.2,10.47,2,15.28,4.37c11.36,5.6,19.62,14.19,24.09,26.1c1.46,3.88,2.4,7.99,3.25,12.07c1.64,7.9,0.16,15.56-2.22,23.11
			c-2.04,6.49-3.99,13-5.99,19.5c-1.88,6.11-3.79,12.21-5.67,18.32c-2.19,7.14-4.28,14.3-6.53,21.42
			c-2.07,6.55-4.4,13.01-6.43,19.57c-1.92,6.2-3.54,12.49-5.4,18.72c-1.82,6.13-3.78,12.21-5.65,18.32
			c-2.19,7.14-4.28,14.3-6.53,21.42c-2.07,6.55-4.4,13.01-6.43,19.57c-1.92,6.2-3.54,12.49-5.39,18.71
			c-1.82,6.13-3.78,12.21-5.65,18.32c-2.18,7.13-4.28,14.3-6.53,21.41c-2.07,6.54-4.4,13.01-6.43,19.56
			c-1.92,6.2-3.56,12.48-5.38,18.71c-1.34,4.58-2.75,9.15-4.16,13.71c-2.87,9.28-5.77,18.55-8.64,27.83
			c-3.4,10.98-6.81,21.97-10.18,32.96c-3.15,10.26-6.18,20.55-9.39,30.79c-2.05,6.55-4.45,12.98-6.47,19.54
			c-1.91,6.2-3.42,12.52-5.29,18.73c-1.95,6.47-4.16,12.85-6.16,19.3c-1.65,5.32-3.11,10.7-4.73,16.03
			c-2.24,7.39-4.56,14.75-6.83,22.13c-1.73,5.63-3.44,11.26-5.16,16.89c-1.64,5.36-3.28,10.71-4.93,16.07
			c-2.86,9.28-5.68,18.57-8.61,27.82c-3.37,10.65-6.95,21.24-10.23,31.92c-2.94,9.58-5.59,19.25-8.4,28.87
			c-0.67,2.28-1.46,4.53-2.37,7.33c2.77,0,4.75,0,6.73,0c107.83,0,215.66,0.03,323.49-0.04c10.54-0.01,20.34,2.31,29.18,8.01
			c9.5,6.12,16.11,14.48,19.9,25.33c3.69,10.55,3.95,20.97,0.75,31.51c-2.29,7.54-6.31,14.12-11.75,19.89
			c-40.7,43.17-81.35,86.38-122.02,129.59c-225.13,239.2-450.26,478.39-675.36,717.63c-9.22,9.8-19.92,16.4-33.57,17.69
			c-20.02,1.88-35.24-6.21-46.78-22.19c-3.89-5.39-6.61-11.54-7.57-17.85c-1.04-6.9-1.46-14.15,0.68-21.15
			c3.71-12.18,7.27-24.41,10.99-36.59c3.39-11.08,6.97-22.1,10.37-33.18c3.26-10.59,6.36-21.22,9.62-31.81
			c3.26-10.6,6.71-21.15,9.93-31.76c3.13-10.35,5.95-20.79,9.13-31.13c3.14-10.2,6.69-20.27,9.82-30.47
			c3.52-11.49,6.66-23.09,10.18-34.58c3.58-11.68,7.52-23.25,11.14-34.91c3.05-9.84,5.83-19.76,8.82-29.61
			c2.09-6.87,4.4-13.66,6.5-20.53c3.21-10.51,6.27-21.07,9.5-31.57c1.88-6.12,4.09-12.14,5.95-18.26
			c3.43-11.35,6.6-22.78,10.08-34.11c3.18-10.37,6.74-20.63,9.93-31c3.48-11.34,6.63-22.78,10.11-34.11
			c3.31-10.76,6.95-21.42,10.3-32.17c3.29-10.57,6.35-21.2,9.61-31.78c3.21-10.43,6.58-20.82,9.83-31.24
			c2.72-8.72,5.38-17.46,8.04-26.2C381.35,952.56,381.52,951.59,381.86,950.1z"/>
		<path 
			fillRule="evenodd"
            clipRule="evenodd" 
			fill="rgba(0, 0, 0, 0.8)" 
			d="M804.92,126.97c-1.08,3.6-2.05,7.04-2.92,10.14c-0.71,2.53-1.38,4.91-2.02,7.09
			c-0.97,3.26-2.03,6.65-3.15,10.22c-0.79,2.52-1.57,5.04-2.35,7.56c-0.85,2.77-1.68,5.53-2.51,8.3c-1.32,4.37-2.56,8.5-3.82,12.5
			c-0.77,2.42-1.65,5.05-2.59,7.84c-1.29,3.84-2.63,7.8-3.97,12.15c-1.36,4.41-2.55,8.64-3.6,12.38c-0.71,2.52-1.37,4.9-2.02,7.07
			c-0.98,3.28-2.04,6.68-3.16,10.28c-0.78,2.5-1.56,4.99-2.32,7.49c-0.84,2.74-1.67,5.49-2.49,8.23c-1.32,4.39-2.57,8.54-3.84,12.55
			c-0.76,2.41-1.65,5.04-2.58,7.82c-1.3,3.84-2.63,7.82-3.98,12.17c-1.45,4.68-2.72,9.2-3.83,13.2c-0.65,2.32-1.26,4.51-1.87,6.57
			c-1.18,4.04-2.47,8.2-3.84,12.65c-1.54,4.99-3.09,9.98-4.65,14.96c-1.33,4.28-2.66,8.56-3.99,12.84l-1.31,4.21
			c-2.93,9.47-5.97,19.26-8.94,28.94c-1.25,4.08-2.49,8.17-3.72,12.26c-1.9,6.28-3.69,12.21-5.54,18.12
			c-0.71,2.27-1.6,4.88-2.54,7.63c-1.25,3.65-2.66,7.79-4.03,12.23c-1.35,4.38-2.46,8.48-3.45,12.09c-0.7,2.58-1.36,5.02-1.98,7.05
			c-0.84,2.81-1.85,5.89-2.92,9.15c-1,3.06-2.03,6.23-3.08,9.62c-1.1,3.53-2.05,6.82-2.97,10c-0.66,2.28-1.28,4.43-1.88,6.41
			c-1.32,4.36-2.67,8.7-4.09,13.29c-0.89,2.86-1.77,5.71-2.65,8.58c-1.05,3.4-2.08,6.8-3.12,10.21c-0.69,2.26-1.38,4.52-2.07,6.78
			c-1.63,5.31-3.26,10.62-4.89,15.93c-0.81,2.64-1.62,5.28-2.43,7.92c-2.06,6.71-4.01,13.06-6.02,19.43
			c-1.31,4.14-2.65,8.28-4.08,12.66c-2.08,6.39-4.23,13-6.32,19.8c-2.1,6.85-4.01,13.51-5.85,19.96c-0.94,3.28-1.87,6.56-2.83,9.82
			c-0.11,0.36-0.47,1.46-0.74,2.26c-0.32,0.98-0.66,2-1.02,3.09l-22.14,68.18c-3.76,11.57,4.87,23.44,17.03,23.44h71.69h6.73
			l71.33,0l71.33,0c38.52,0,86.49,0,136.59-0.02c-23.95,25.43-47.91,50.89-71.32,75.76l-19.35,20.56l-82.88,88.06
			c-175.63,186.6-356.68,378.97-535.76,569.29c0,0,0,0,0,0c1.69-5.64,3.27-10.93,4.91-16.23c1.37-4.45,2.77-8.88,4.26-13.58
			c1.89-5.98,3.85-12.17,5.76-18.48c1.6-5.3,3.09-10.47,4.52-15.46c1.55-5.39,3.01-10.47,4.51-15.36c1.35-4.37,2.85-8.92,4.43-13.74
			c1.77-5.38,3.61-10.93,5.4-16.79c1.94-6.31,3.71-12.47,5.43-18.43c1.63-5.65,3.17-10.98,4.75-16.16
			c1.73-5.64,3.59-11.36,5.55-17.41c1.81-5.59,3.69-11.36,5.52-17.27c1.87-6.03,3.6-11.92,5.27-17.61c1.26-4.31,2.46-8.39,3.68-12.4
			c0.89-2.94,1.9-6.06,2.97-9.37c1.14-3.53,2.32-7.19,3.5-11.06c1.59-5.19,3.12-10.35,4.61-15.35c1.66-5.57,3.23-10.84,4.85-16.1
			c0.64-2.07,1.45-4.48,2.3-7.03c1.16-3.44,2.46-7.34,3.74-11.55c1.68-5.56,3.28-11.05,4.83-16.36c1.77-6.08,3.44-11.83,5.17-17.47
			c1.41-4.6,2.96-9.35,4.61-14.37c1.75-5.34,3.55-10.85,5.32-16.61c1.89-6.14,3.64-12.16,5.33-17.99
			c1.63-5.62,3.18-10.93,4.77-16.11c1.59-5.17,3.3-10.43,5.12-16c1.67-5.14,3.41-10.46,5.11-15.92c1.9-6.1,3.7-12.13,5.44-17.95
			c1.45-4.87,2.83-9.47,4.24-14.05c1.74-5.66,3.52-11.27,5.41-17.22c1.42-4.49,2.9-9.14,4.35-13.79c2.42-7.76,4.8-15.56,7.1-23.11
			l1.06-3.49c1.04-3.42,1.64-6.2,1.96-7.69l0.08-0.36l14.77-63.83c2.6-11.23-5.93-21.95-17.45-21.95h-65.52h-6.66h-98.61
			c-60.15,0-120.29,0-180.44,0c1.47-1.57,2.94-3.12,4.4-4.68c4.41-4.7,8.83-9.39,13.25-14.09l81.24-86.32
			C394.97,562.59,601.1,343.57,804.92,126.97 M848.11,0c-6.2,0-12.17,1.5-17.95,3.89c-7.24,3-13.22,8.15-18.65,13.92
			C561.97,283.02,312.4,548.18,62.82,813.35c-16.11,17.11-32.17,34.27-48.34,51.31c-5.33,5.62-9.5,11.96-12.18,19.14
			c-2.57,6.91-2.37,14.22-2.23,21.54c0.12,6.06,1.98,11.68,4.59,16.68c6,11.51,15.44,19.9,27.38,25.1
			c3.65,1.59,7.75,2.41,11.72,2.93c1.26,0.17,2.54,0.22,3.83,0.22c2.36,0,4.75-0.18,7.12-0.18c73.96,0,147.92,0,221.88,0
			c32.87,0,65.74,0,98.61,0c1.99,0,3.98,0,6.66,0c-0.35,1.5-0.51,2.46-0.79,3.39c-2.67,8.74-5.32,17.48-8.04,26.2
			c-3.25,10.42-6.61,20.81-9.83,31.24c-3.26,10.58-6.31,21.22-9.61,31.78c-3.35,10.75-6.99,21.41-10.3,32.17
			c-3.49,11.33-6.63,22.78-10.11,34.11c-3.19,10.37-6.75,20.63-9.93,31c-3.48,11.33-6.65,22.76-10.08,34.11
			c-1.85,6.13-4.06,12.15-5.95,18.26c-3.23,10.5-6.29,21.06-9.5,31.57c-2.1,6.86-4.41,13.66-6.5,20.53
			c-2.99,9.85-5.77,19.78-8.82,29.61c-3.62,11.67-7.56,23.24-11.14,34.91c-3.52,11.49-6.66,23.09-10.18,34.58
			c-3.13,10.2-6.68,20.27-9.82,30.47c-3.18,10.33-5.99,20.78-9.13,31.13c-3.21,10.62-6.67,21.16-9.93,31.76
			c-3.26,10.59-6.36,21.22-9.62,31.81c-3.41,11.07-6.98,22.1-10.37,33.18c-3.73,12.18-7.28,24.41-10.99,36.59
			c-2.14,7-1.72,14.25-0.68,21.15c0.95,6.31,3.68,12.46,7.57,17.85c10.44,14.45,23.89,22.45,41.19,22.45c1.82,0,3.69-0.09,5.59-0.27
			c13.65-1.28,24.34-7.88,33.57-17.69c225.1-239.23,450.23-478.43,675.36-717.63c40.66-43.2,81.32-86.42,122.02-129.59
			c5.44-5.77,9.46-12.35,11.75-19.89c3.2-10.54,2.94-20.95-0.75-31.51c-3.79-10.85-10.4-19.21-19.9-25.33
			c-8.83-5.69-18.61-8.01-29.13-8.01c-0.01,0-0.03,0-0.04,0c-60.28,0.04-120.55,0.05-180.83,0.05c-47.55,0-95.11-0.01-142.66-0.01
			c-1.98,0-3.96,0-6.73,0c0.91-2.81,1.7-5.05,2.37-7.33c2.81-9.62,5.46-19.29,8.4-28.87c3.28-10.68,6.86-21.27,10.23-31.92
			c2.93-9.26,5.74-18.55,8.61-27.82c1.65-5.35,3.29-10.71,4.93-16.07c1.72-5.63,3.43-11.26,5.16-16.89
			c2.27-7.38,4.59-14.74,6.83-22.13c1.62-5.33,3.08-10.71,4.73-16.03c2-6.45,4.22-12.84,6.16-19.3c1.87-6.21,3.38-12.53,5.29-18.73
			c2.02-6.55,4.42-12.99,6.47-19.54c3.21-10.24,6.24-20.53,9.39-30.79c3.37-10.99,6.78-21.98,10.18-32.96
			c2.87-9.28,5.77-18.55,8.64-27.83c1.41-4.56,2.82-9.12,4.16-13.71c1.82-6.23,3.46-12.51,5.38-18.71
			c2.03-6.56,4.36-13.02,6.43-19.56c2.25-7.11,4.34-14.27,6.53-21.41c1.87-6.11,3.83-12.2,5.65-18.32
			c1.85-6.22,3.47-12.51,5.39-18.71c2.03-6.56,4.36-13.02,6.43-19.57c2.25-7.11,4.34-14.28,6.53-21.42
			c1.87-6.11,3.83-12.2,5.65-18.32c1.85-6.22,3.48-12.51,5.4-18.72c2.03-6.56,4.36-13.02,6.43-19.57
			c2.25-7.12,4.34-14.28,6.53-21.42c1.87-6.11,3.78-12.21,5.67-18.32c2-6.5,3.95-13.01,5.99-19.5c2.38-7.55,3.85-15.21,2.22-23.11
			c-0.85-4.08-1.79-8.18-3.25-12.07c-4.47-11.92-12.73-20.5-24.09-26.1c-4.81-2.37-10.08-3.17-15.28-4.37
			C853.78,0.31,850.92,0,848.11,0L848.11,0z"/>
	</g>
</g>
</svg>
